<svg width="12" height="12" viewBox="0 0 12 12" fill="none" xmlns="http://www.w3.org/2000/svg">
<path d="M4.5 5V9C4.5 9.13261 4.55268 9.25979 4.64645 9.35355C4.74021 9.44732 4.86739 9.5 5 9.5C5.13261 9.5 5.25979 9.44732 5.35355 9.35355C5.44732 9.25979 5.5 9.13261 5.5 9V5C5.5 4.86739 5.44732 4.74021 5.35355 4.64645C5.25979 4.55268 5.13261 4.5 5 4.5C4.86739 4.5 4.74021 4.55268 4.64645 4.64645C4.55268 4.74021 4.5 4.86739 4.5 5ZM7 4.5C7.13261 4.5 7.25979 4.55268 7.35355 4.64645C7.44732 4.74021 7.5 4.86739 7.5 5V9C7.5 9.13261 7.44732 9.25979 7.35355 9.35355C7.25979 9.44732 7.13261 9.5 7 9.5C6.86739 9.5 6.74021 9.44732 6.64645 9.35355C6.55268 9.25979 6.5 9.13261 6.5 9V5C6.5 4.86739 6.55268 4.74021 6.64645 4.64645C6.74021 4.55268 6.86739 4.5 7 4.5ZM8 2H11C11.1326 2 11.2598 2.05268 11.3536 2.14645C11.4473 2.24021 11.5 2.36739 11.5 2.5C11.5 2.63261 11.4473 2.75979 11.3536 2.85355C11.2598 2.94732 11.1326 3 11 3H10.447L9.695 9.776C9.62707 10.3875 9.336 10.9525 8.87751 11.3629C8.41902 11.7732 7.8253 12.0001 7.21 12H4.79C4.1747 12.0001 3.58098 11.7732 3.12249 11.3629C2.664 10.9525 2.37293 10.3875 2.305 9.776L1.552 3H1C0.867392 3 0.740215 2.94732 0.646447 2.85355C0.552679 2.75979 0.5 2.63261 0.5 2.5C0.5 2.36739 0.552679 2.24021 0.646447 2.14645C0.740215 2.05268 0.867392 2 1 2H4C4 1.46957 4.21071 0.960859 4.58579 0.585786C4.96086 0.210714 5.46957 0 6 0C6.53043 0 7.03914 0.210714 7.41421 0.585786C7.78929 0.960859 8 1.46957 8 2ZM6 1C5.73478 1 5.48043 1.10536 5.29289 1.29289C5.10536 1.48043 5 1.73478 5 2H7C7 1.73478 6.89464 1.48043 6.70711 1.29289C6.51957 1.10536 6.26522 1 6 1ZM2.559 3L3.299 9.666C3.33985 10.0329 3.51453 10.3718 3.78962 10.6179C4.0647 10.864 4.42088 11.0001 4.79 11H7.21C7.57895 10.9998 7.93488 10.8636 8.20976 10.6175C8.48463 10.3715 8.65917 10.0327 8.7 9.666L9.442 3H2.56H2.559Z" fill="#A5A5A5"/>
</svg>
